<?xml version="1.0" encoding="UTF-8" standalone="no"?>
<!-- Created with Inkscape (http://www.inkscape.org/) -->

<svg
   xmlns:dc="http://purl.org/dc/elements/1.1/"
   xmlns:cc="http://creativecommons.org/ns#"
   xmlns:rdf="http://www.w3.org/1999/02/22-rdf-syntax-ns#"
   xmlns:svg="http://www.w3.org/2000/svg"
   xmlns="http://www.w3.org/2000/svg"
   xmlns:sodipodi="http://sodipodi.sourceforge.net/DTD/sodipodi-0.dtd"
   xmlns:inkscape="http://www.inkscape.org/namespaces/inkscape"
   id="svg2"
   version="1.1"
   inkscape:version="0.48.4 r9939"
   width="600"
   height="600"
   sodipodi:docname="13309573511112670181decorative-lines-2_large-hi.svg">
  <metadata
     id="metadata8">
    <rdf:RDF>
      <cc:Work
         rdf:about="">
        <dc:format>image/svg+xml</dc:format>
        <dc:type
           rdf:resource="http://purl.org/dc/dcmitype/StillImage" />
        <dc:title />
      </cc:Work>
    </rdf:RDF>
  </metadata>
  <defs
     id="defs6" />
  <sodipodi:namedview
     pagecolor="#ffffff"
     bordercolor="#666666"
     borderopacity="1"
     objecttolerance="10"
     gridtolerance="10"
     guidetolerance="10"
     inkscape:pageopacity="0"
     inkscape:pageshadow="2"
     inkscape:window-width="1920"
     inkscape:window-height="1018"
     id="namedview4"
     showgrid="false"
     inkscape:zoom="1.5367207"
     inkscape:cx="304.7622"
     inkscape:cy="354.48894"
     inkscape:window-x="-8"
     inkscape:window-y="-8"
     inkscape:window-maximized="1"
     inkscape:current-layer="svg2" />
  <g
     id="g3005"
     transform="translate(-3.8240154,-4.5888183)" />
  <path
     style="fill:#000000;fill-opacity:1;stroke:none"
     d="m 295.98458,323.29419 c -3.75313,-1.57506 -8.04567,-8.65022 -9.72337,-16.02647 -3.23224,-14.2111 -1.25722,-30.38733 5.46793,-44.78446 2.12963,-4.55911 3.61106,-8.96945 3.29205,-9.80076 -0.97296,-2.5355 -9.19571,-8.2155 -15.17453,-10.48206 -7.24749,-2.74751 -23.62916,-3.66874 -35.26529,-1.98316 -12.53143,1.81527 -49.88725,14.56097 -49.88725,17.02139 0,1.14538 13.6635,7.03387 16.32121,7.03387 1.26699,0 6.23608,-1.32926 11.04243,-2.95391 15.50022,-5.2394 29.29757,-5.85824 37.38372,-1.67674 9.06885,4.68969 7.21363,13.63987 -3.47059,16.74319 -7.61074,2.21061 -21.2205,1.59381 -32.39574,-1.4682 l -9.61897,-2.63558 -15.36562,5.5939 c -17.4021,6.33528 -39.26648,12.14688 -58.39644,15.52189 -11.13069,1.96373 -16.52293,4.1922 -37.5,4.22728 -22.504762,0.0376 -25.192232,-2.03905 -33.000002,-4.15069 -18.65855,-5.04629 -33.91023,-15.0351 -38.71006,-25.35244 -8.72436,-18.75321 2.72746,-38.89599 22.07425,-38.82674 6.28398,0.0225 13.21555,2.38404 16.97424,5.78303 5.87893,5.31632 7.64679,17.3007 3.20703,21.74046 -2.71891,2.71891 -3.76381,2.94324 -6.6112,1.41937 -2.52478,-1.35122 -2.49387,-5.43793 0.0657,-8.69195 2.23651,-2.84327 2.57916,-7.92854 0.70051,-10.39629 -3.94352,-5.1801 -14.26534,-7.50311 -21.38541,-4.81296 -3.85493,1.45649 -8.19247,5.75525 -9.89701,9.8085 -2.25992,5.37393 -1.80885,15.7507 0.94015,21.62788 5.23049,11.18242 21.11151,21.03744 40.28223,24.99726 10.37354,2.14272 31.948062,1.93357 47.359532,-0.45911 16.31242,-2.53255 37.817,-7.99716 55.47701,-14.09748 18.34967,-6.33855 21.73482,-7.78891 20.99046,-8.99331 -0.9294,-1.5038 -12.14546,-6.94736 -14.31452,-6.94736 -1.04725,0 -4.32258,1.06867 -7.27852,2.37482 -9.61544,4.24881 -24.47216,8.52684 -33.73922,9.71529 -11.62025,1.49024 -21.80145,0.11676 -30.06827,-4.05632 -7.93575,-4.00595 -10.56694,-7.82952 -10.56694,-15.35555 0,-5.53577 0.20325,-6.01136 4.13747,-9.68116 5.24403,-4.89158 10.55349,-6.44948 21.86253,-6.4149 11.13827,0.034 22.47605,2.79531 39.09748,9.52198 6.65362,2.69271 12.70627,4.89584 13.45035,4.89584 0.74407,0 5.4252,-1.55561 10.40252,-3.45692 21.34924,-8.1553 43.54123,-12.54308 63.43892,-12.54308 17.71552,0 29.85932,3.56956 37.65834,11.06933 1.67618,1.61187 3.42983,2.93067 3.89701,2.93067 0.46717,0 2.69574,-1.51039 4.95239,-3.35642 9.7355,-7.96404 19.14397,-10.64358 37.37201,-10.64358 20.57516,0 43.03776,4.45287 63.35496,12.55915 4.7432,1.89247 9.51732,3.44085 10.60917,3.44085 1.09185,0 5.31106,-1.52352 9.37602,-3.38559 28.20697,-12.92104 53.27276,-14.91166 64.58919,-5.12938 3.2907,2.84459 3.68852,3.73399 4.06324,9.08415 0.3502,5 0.0454,6.47525 -1.94197,9.3997 -3.45154,5.07897 -10.26148,8.84231 -19.35699,10.69715 -14.14064,2.88369 -29.17186,0.12148 -55.6863,-10.23318 l -4.72365,-1.84472 -7.04265,3.40701 c -3.87346,1.87386 -6.88669,3.87491 -6.69607,4.44677 0.84467,2.534 36.45608,14.41599 56.88247,18.97923 25.20706,5.63123 51.71269,7.25332 66.76898,4.08613 15.7628,-3.31581 31.53818,-11.85448 37.32265,-20.20147 8.814,-12.7186 6.77335,-29.43173 -4.28808,-35.11983 -6.34906,-3.26486 -15.24318,-2.76334 -20.37219,1.14875 -5.10415,3.89312 -5.54244,6.76911 -2.02308,13.27511 l 2.88907,5.34082 -2.15592,2.15592 c -4.33789,4.33788 -10.43946,-0.60133 -10.2618,-8.30691 0.26654,-11.56053 9.776,-19.75574 22.92392,-19.75574 7.5677,0 12.87351,2.09089 17.82217,7.02327 4.98164,4.96526 6.46788,8.62943 6.97609,17.19879 0.4257,7.1782 0.22093,8.25275 -2.7056,14.19736 -4.04212,8.21071 -9.99965,13.47752 -21.59266,19.08919 -16.72469,8.09568 -21.71791,11.1118 -49.7704,11.10277 -18.94051,-0.006 -26.7257,-2.58324 -35.2296,-3.98742 -22.66807,-3.74301 -47.21458,-10.383 -65.89327,-17.82456 l -9.91218,-3.949 -10.09727,2.71058 c -21.88469,5.87488 -41.59727,2.52314 -41.59727,-7.0728 0,-5.4281 5.54007,-9.20097 16.10149,-10.96534 5.18593,-0.86636 16.37394,0.95254 27.21025,4.42372 5.16731,1.65523 10.37095,3.00952 11.56364,3.00952 3.30115,0 15.36405,-5.78172 14.90929,-7.14599 -0.5293,-1.5879 -19.81457,-9.27879 -32.28467,-12.875 -12.92594,-3.72767 -20.88175,-4.96213 -32.0399,-4.97146 -13.98848,-0.0117 -23.7255,3.1227 -31.9601,10.28808 l -4,3.48062 2.37746,4.86188 c 7.1366,14.59426 10.0055,30.12408 8.14901,44.11187 -1.28948,9.71564 -3.52586,15.62169 -7.18871,18.98461 -2.84431,2.61142 -7.4135,3.60218 -10.5473,2.28704 z m 6.99373,-11.03055 c 6.47655,-5.09446 6.38392,-33.10584 -0.15954,-48.2411 -1.12947,-2.6125 -2.54446,-4.75 -3.14444,-4.75 -0.59997,0 -2.17437,2.3667 -3.49866,5.25933 -6.84405,14.94938 -7.34307,40.97006 -0.90911,47.40402 2.86039,2.86039 4.40838,2.92618 7.71175,0.32775 z m -50.18819,-39.00931 c 6.41938,-1.21741 8.39954,-2.87126 7.53968,-6.29723 -1.36401,-5.43463 -15.12895,-6.37477 -28.05262,-1.91598 -4.35432,1.50228 -8.08378,3.2323 -8.28769,3.84449 -0.48065,1.44302 3.79442,3.1457 10.70463,4.26347 7.74004,1.25199 11.92104,1.27631 18.096,0.10525 z m 117.17989,-1.34675 c 6.38564,-1.84881 5.37254,-3.68372 -3.77589,-6.83884 -12.49531,-4.30938 -24.69052,-3.67973 -27.88796,1.4399 -1.55574,2.49099 1.83704,5.56078 7.43287,6.72527 5.296,1.1021 18.30234,0.39017 24.23098,-1.32633 z M 159.19412,261.81402 c 12.07529,-4.1316 16.5,-6.13402 16.5,-7.46714 0,-1.18566 -15.54714,-7.62696 -26,-10.77201 -15.34016,-4.61554 -33.70916,-3.2208 -38.79839,2.94592 -2.2229,2.69353 -2.6401,8.43359 -0.81538,11.21846 4.25626,6.49587 11.16825,8.66845 26.11377,8.20808 10.71836,-0.33015 13.17484,-0.7716 23,-4.13331 z m 320.93971,2.39519 c 6.63409,-2.48213 9.56028,-5.82961 9.56028,-10.93667 0,-13.17625 -20.41307,-16.62525 -46.49999,-7.85666 -10.744,3.61138 -20.02862,7.97121 -19.92576,9.35666 0.0969,1.30579 18.22075,8.28093 25.92575,9.9778 9.77604,2.15298 24.4238,1.89679 30.93972,-0.54113 z"
     id="path3007"
     inkscape:connector-curvature="0"
     sodipodi:nodetypes="sssssssssssscssssssssssssssssssssssssssssssssssssssssscsssssssscsssssssssscssssssssscssssssssssssssssssssssssssssssscss" />
</svg>
